<?xml version="1.0" encoding="UTF-8" standalone="no"?>
<svg
   xmlns:dc="http://purl.org/dc/elements/1.1/"
   xmlns:cc="http://creativecommons.org/ns#"
   xmlns:rdf="http://www.w3.org/1999/02/22-rdf-syntax-ns#"
   xmlns:svg="http://www.w3.org/2000/svg"
   xmlns="http://www.w3.org/2000/svg"
   xmlns:sodipodi="http://sodipodi.sourceforge.net/DTD/sodipodi-0.dtd"
   xmlns:inkscape="http://www.inkscape.org/namespaces/inkscape"
   id="svg30"
   version="1.1"
   viewBox="0 0 388.6 153.1"
   sodipodi:docname="logo_claro.svg"
   inkscape:version="0.92.4 (5da689c313, 2019-01-14)">
  <sodipodi:namedview
     pagecolor="#ffffff"
     bordercolor="#666666"
     borderopacity="1"
     objecttolerance="10"
     gridtolerance="10"
     guidetolerance="10"
     inkscape:pageopacity="0"
     inkscape:pageshadow="2"
     inkscape:window-width="2560"
     inkscape:window-height="1017"
     id="namedview17"
     showgrid="false"
     inkscape:zoom="0.9804426"
     inkscape:cx="194.3"
     inkscape:cy="76.550003"
     inkscape:window-x="1358"
     inkscape:window-y="-8"
     inkscape:window-maximized="1"
     inkscape:current-layer="svg30" />
  <metadata
     id="metadata34">
    <rdf:RDF>
      <cc:Work
         rdf:about="">
        <dc:format>image/svg+xml</dc:format>
        <dc:type
           rdf:resource="http://purl.org/dc/dcmitype/StillImage" />
        <dc:title>Ativo 1</dc:title>
      </cc:Work>
    </rdf:RDF>
  </metadata>
  <defs
     id="defs4">
    <style
       id="style2">.cls-1{fill:#fff;}</style>
  </defs>
  <title
     id="title6">Ativo 1</title>
  <path
     style="fill:#d2d2d2;fill-opacity:1"
     id="path8"
     d="M 92.1,20.5 V 83.6 A 20.53,20.53 0 0 1 71.6,104.1 H 0 V 0 H 71.5 A 20.55,20.55 0 0 1 92.1,20.5 Z M 69.5,26.7 A 7.64,7.64 0 0 0 61.8,19 H 22.6 v 66.1 h 39.2 a 7.64,7.64 0 0 0 7.7,-7.7 z"
     class="cls-1" />
  <path
     style="fill:#d2d2d2;fill-opacity:1"
     id="path10"
     d="m 195.3,0 v 83.6 a 20.53,20.53 0 0 1 -20.5,20.5 h -51 A 20.53,20.53 0 0 1 103.3,83.6 V 0 h 22.6 v 77.4 a 7.64,7.64 0 0 0 7.7,7.7 H 165 a 7.64,7.64 0 0 0 7.7,-7.7 V 0 Z"
     class="cls-1" />
  <path
     style="fill:#d2d2d2;fill-opacity:1"
     id="path12"
     d="m 229.1,19 v 23.6 h 54.1 v 19 h -54.1 v 15.9 a 7.64,7.64 0 0 0 7.7,7.7 h 56.6 v 19 H 227 A 20.53,20.53 0 0 1 206.5,83.7 V 0 h 86.9 v 19 z"
     class="cls-1" />
  <path
     style="fill:#d2d2d2;fill-opacity:1"
     id="path14"
     d="m 324.1,19 v 23.6 h 54.1 v 19 h -54.1 v 15.9 a 7.64,7.64 0 0 0 7.7,7.7 h 56.6 v 19 H 322 A 20.53,20.53 0 0 1 301.5,83.7 V 0 h 86.9 v 19 z"
     class="cls-1" />
  <path
     style="fill:#d2d2d2;fill-opacity:1;stroke:#d2d2d2;stroke-opacity:1;stroke-width:2;stroke-miterlimit:4;stroke-dasharray:none"
     id="path16"
     d="m 15.8,146.6 c 0,4.4 -1.7,6.5 -5.3,6.5 H 0 v -24.3 h 9 c 4.2,0 7,1.6 7,6.2 0,2.9 -0.8,4.8 -3.4,6 1.5,0.5 3.2,3.1 3.2,5.6 z M 10.4,130.1 H 1.3 v 10.4 H 7 c 3.7,0 7.8,0 7.8,-5.4 0,-2.5 -1.5,-5 -4.4,-5 z m -9.1,21.8 h 7.8 c 3.5,0 5.5,-1.1 5.5,-5 A 5,5 0 0 0 9.9,141.6 H 1.3 Z"
     class="cls-1" />
  <path
     style="fill:#d2d2d2;fill-opacity:1;stroke-width:2;stroke-miterlimit:4;stroke-dasharray:none;stroke:#d2d2d2;stroke-opacity:1"
     id="path18"
     d="m 94.1,153.1 h -1.4 l -4.4,-9.6 h -9 l 0.1,9.6 H 78 v -24.3 h 9.9 c 3.9,0 6,3.2 6,7.2 0,3.1 -1.4,6.6 -4.3,7.3 z M 92.5,136 c 0,-3.8 -1.9,-6.1 -4.7,-6.1 h -8.6 v 12.2 h 7.4 c 3.2,0 5.9,-0.7 5.9,-6.1 z"
     class="cls-1" />
  <path
     style="fill:#d2d2d2;fill-opacity:1;stroke:#d2d2d2;stroke-opacity:1;stroke-width:2;stroke-miterlimit:4;stroke-dasharray:none"
     id="path20"
     d="m 153.1,153.1 8.7,-24.3 h 2 c 1.2,3 3.3,8.9 5.8,16 1,2.7 2,5.5 3,8.3 h -1.4 l -2.9,-8.2 h -10.8 l -2.7,8.2 z m 9.7,-23.3 c -0.4,1.3 -1.4,4.1 -2.1,5.8 l -2.8,7.9 h 9.8 z"
     class="cls-1" />
  <path
     style="fill:#d2d2d2;fill-opacity:1;stroke:#d2d2d2;stroke-opacity:1;stroke-width:2;stroke-miterlimit:4;stroke-dasharray:none"
     id="path22"
     d="m 238.7,138.2 a 20.41,20.41 0 0 0 4.2,1.8 c 3.2,1 7.2,2.4 7.2,6.6 0,3.6 -2.9,6.4 -7.3,6.4 h -0.9 c -1.6,0 -5.2,-0.4 -7.6,-5.5 l 1,-0.6 c 1.6,2.9 3.6,4.8 7.1,4.8 3.3,0 6.3,-2.1 6.3,-4.9 0,-3.3 -3.2,-4.4 -6.5,-5.7 a 31.22,31.22 0 0 1 -4.2,-1.8 5.13,5.13 0 0 1 -2.9,-4.6 c 0,-3.5 2.9,-6.1 6.9,-6.1 2.9,0 5.2,1.2 7.2,4.3 l -0.9,0.6 c -1.7,-2.1 -3.1,-3.8 -6.1,-3.8 -3.4,0 -5.7,2 -5.7,4.7 a 3.86,3.86 0 0 0 2.2,3.8 z"
     class="cls-1" />
  <path
     style="fill:#d2d2d2;fill-opacity:1;stroke:#d2d2d2;stroke-opacity:1;stroke-width:2;stroke-miterlimit:4;stroke-dasharray:none"
     id="path24"
     d="m 311.9,153.1 v -24.3 h 1.3 v 24.3 z"
     class="cls-1" />
  <path
     style="fill:#d2d2d2;fill-opacity:1;stroke:#d2d2d2;stroke-opacity:1;stroke-width:2;stroke-miterlimit:4;stroke-dasharray:none"
     id="path26"
     d="m 388.6,152.2 v 0.9 H 375 v -24.3 h 1.3 V 152 h 12.3 z"
     class="cls-1" />
</svg>
