<?xml version="1.0" encoding="utf-8"?>
<!-- Generator: Adobe Illustrator 23.0.4, SVG Export Plug-In . SVG Version: 6.00 Build 0)  -->
<svg version="1.1" id="Layer_1" xmlns="http://www.w3.org/2000/svg" xmlns:xlink="http://www.w3.org/1999/xlink" x="0px" y="0px"
	 viewBox="0 0 1274.23 789.9" style="enable-background:new 0 0 1274.23 789.9;" xml:space="preserve">
<style type="text/css">
	.st0{fill:#FFFFFF;}
</style>
<g>
	<g>
		<path class="st0" d="M284.85,301.08c-79.24,0-143.71-64.47-143.71-143.71S205.61,13.67,284.85,13.67s143.71,64.47,143.71,143.71
			S364.09,301.08,284.85,301.08z M284.85,73.55c-46.22,0-83.83,37.61-83.83,83.83s37.61,83.83,83.83,83.83s83.83-37.61,83.83-83.83
			S331.07,73.55,284.85,73.55z"/>
	</g>
	<g>
		<path class="st0" d="M284.85,776.23c-147.51,0-267.52-120.01-267.52-267.52S137.34,241.2,284.85,241.2
			s267.52,120.01,267.52,267.52S432.36,776.23,284.85,776.23z M284.85,301.08c-114.49,0-207.64,93.15-207.64,207.64
			s93.14,207.64,207.64,207.64s207.64-93.15,207.64-207.64S399.34,301.08,284.85,301.08z"/>
	</g>
	<g>
		<path class="st0" d="M599.76,197.24c-7.39-7.1-11.08-16.19-11.08-27.56c0-11.36,3.69-20.46,11.08-27.27
			c7.39-6.82,17.61-10.23,30.12-10.23c12.22,0,22.16,3.41,29.83,10.23c7.67,6.82,11.36,15.91,11.36,27.27
			c0,11.36-3.69,20.46-11.08,27.56c-7.39,7.1-17.61,10.51-30.12,10.51C617.09,207.75,607.14,204.34,599.76,197.24z M606.01,594.14
			c-6.25-5.11-9.38-13.07-9.38-23.58V304.35c0-10.51,3.13-18.47,9.38-23.86c6.25-5.4,14.21-8.24,23.86-8.24s17.61,2.84,23.58,8.24
			c5.97,5.4,9.09,13.35,9.09,23.86v266.21c0,10.51-3.13,18.47-9.09,23.58c-6.25,5.11-13.92,7.95-23.58,7.95
			C620.21,602.09,612.26,599.25,606.01,594.14z"/>
	</g>
	<path class="st0" d="M919.38,558.91c4.26,4.26,6.25,9.94,6.25,17.33c0,8.81-3.41,15.34-10.23,19.89
		c-6.82,4.55-16.76,6.53-29.83,5.68l-17.61-1.42c-35.51-2.56-61.93-13.35-79.27-32.39c-17.61-19.03-26.14-47.16-26.14-84.38V320.26
		h-39.49c-19.32,0-28.98-8.52-28.98-25.57c0-7.95,2.56-14.21,7.67-18.75c5.11-4.55,12.22-6.82,21.31-6.82h39.49v-57.96
		c0-9.94,2.84-17.9,8.81-23.58c5.97-5.68,13.92-8.52,23.86-8.52s18.18,2.84,24.15,8.52c5.97,5.68,9.09,13.64,9.09,23.58v57.96h65.06
		c9.09,0,16.19,2.27,21.31,6.82c5.11,4.55,7.67,10.8,7.67,18.75c0,8.24-2.56,14.77-7.67,19.04c-5.11,4.26-12.22,6.53-21.31,6.53
		h-65.06v168.19c0,20.46,4.26,35.51,12.78,45.17c8.52,9.66,21.59,15.06,38.92,16.48l18.47,1.42
		C908.3,552.37,915.4,554.93,919.38,558.91z"/>
	<path class="st0" d="M1016.54,583.06c-23.86-13.64-42.05-32.96-55.12-57.96c-12.78-25-19.32-54.26-19.32-87.5
		c0-33.81,6.53-63.07,19.32-88.07c12.78-25,31.25-44.6,55.12-57.96c23.86-13.64,51.42-20.46,82.96-20.46s59.09,6.82,82.96,20.46
		c23.86,13.64,42.05,32.96,55.12,57.96c12.78,25.29,19.32,54.55,19.32,88.07c0,33.24-6.53,62.5-19.32,87.5
		c-12.78,25.29-31.25,44.6-55.12,57.96c-23.86,13.64-51.42,20.46-82.96,20.46C1067.96,603.23,1040.4,596.41,1016.54,583.06z
		 M1166.55,521.97c15.63-19.32,23.3-47.45,23.3-84.66c0-36.65-7.95-64.78-23.58-84.38c-15.63-19.32-38.07-29.26-66.76-29.26
		c-28.69,0-51.14,9.66-66.76,29.26c-15.63,19.6-23.58,47.45-23.58,84.38c0,37.22,7.67,65.34,23.3,84.66
		c15.63,19.32,37.79,28.98,67.33,28.98C1128.76,550.95,1151.21,541.29,1166.55,521.97z"/>
</g>
</svg>
